#!OML:ASF F:\VICON\USERDATA\INSTALL\rory3\rory3.ASF
:FULLY-SPECIFIED
:DEGREES
3168
root 0.265378 15.2371 -1.55779 30.032 -2.85075 2.09455
lowerback 29.0304 -0.697009 -3.31483
upperback 4.72529 -2.02251 -1.16732
thorax -10.6511 -0.826429 1.33924
lowerneck -6.86973 -8.87398 -17.0088
upperneck -18.4533 -8.63393 28.2832
head -1.66396 -4.64216 11.9891
rclavicle -5.1684e-015 -1.11319e-014
rhumerus 32.5508 16.9875 -84.7807
rradius 107.296
rwrist 32.9964
rhand 24.2388 2.24018
rfingers 7.12502
rthumb 48.4614 -19.7544
lclavicle -5.1684e-015 -1.11319e-014
lhumerus 10.8977 -8.41495 91.8382
lradius 101.544
lwrist -17.6252
lhand 19.457 42.752
lfingers 7.12502
lthumb 44.0289 66.6241
rfemur -68.5683 1.15114 12.6559
rtibia 67.5075
rfoot -28.8275 -6.79391
rtoes -26.0803
lfemur -67.879 -4.10138 -17.1101
ltibia 66.6624
lfoot -26.5525 2.95976
ltoes -25.5161
3169
root 0.266778 15.321 -1.53191 30.0047 -2.89967 2.35061
lowerback 28.8042 -0.657404 -3.27836
upperback 4.70328 -1.9617 -1.23856
thorax -10.5689 -0.803247 1.2108
lowerneck -6.72688 -8.8952 -16.9658
upperneck -18.5751 -8.65343 28.3741
head -1.71153 -4.67163 12.0263
rclavicle -2.62396e-014 -4.77083e-015
rhumerus 30.1001 17.3812 -85.8071
rradius 105.044
rwrist 33.1194
rhand 24.2325 2.64441
rfingers 7.12502
rthumb 48.4556 -19.353
lclavicle -2.62396e-014 -4.77083e-015
lhumerus 9.1441 -8.11218 91.6746
lradius 101.597
lwrist -17.8671
lhand 20.2339 42.8775
lfingers 7.12502
lthumb 44.7529 66.4737
rfemur -67.7845 1.16608 12.323
rtibia 66.3655
rfoot -28.4746 -6.7634
rtoes -25.6817
lfemur -67.0367 -4.25081 -17.398
ltibia 65.4218
lfoot -26.2568 3.2934
ltoes -26.4784
3170
root 0.262237 15.4151 -1.50217 29.951 -3.0342 2.33071
lowerback 28.4825 -0.515718 -3.2065
upperback 4.70988 -1.74934 -1.24542
thorax -10.4095 -0.713043 1.07865
lowerneck -6.68891 -8.96668 -17.0108
upperneck -18.6078 -8.73274 28.5858
head -1.68529 -4.72145 12.1079
rclavicle 1.11319e-014 -2.38542e-015
rhumerus 27.584 17.5757 -86.8509
rradius 102.634
rwrist 32.9725
rhand 23.5393 3.16433
rfingers 7.12502
rthumb 47.8168 -19.1335
lclavicle 1.11319e-014 -2.38542e-015
lhumerus 7.5361 -7.83326 91.4372
lradius 101.764
lwrist -18.031
lhand 20.7435 43.4149
lfingers 7.12502
lthumb 45.2271 66.8244
rfemur -66.8511 1.41914 12.2439
rtibia 65.0267
rfoot -28.0124 -6.83258
rtoes -25.8125
lfemur -66.0666 -4.15694 -17.4561
ltibia 64.1055
lfoot -25.886 3.33645
ltoes -26.4347
3171
root 0.251992 15.5166 -1.47141 29.8211 -3.10546 2.01206
lowerback 28.2509 -0.334552 -3.01152
upperback 4.72192 -1.44174 -1.13884
thorax -10.2918 -0.580214 0.972551
lowerneck -6.76848 -9.04769 -16.9656
upperneck -18.5607 -8.83362 28.6996
head -1.6259 -4.77246 12.1228
rclavicle -4.77083e-015 -2.5842e-015
rhumerus 25.0834 17.6846 -87.7519
rradius 100.475
rwrist 32.6446
rhand 23.1362 3.47369
rfingers 7.12502
rthumb 47.4447 -18.9941
lclavicle -4.77083e-015 -2.5842e-015
lhumerus 6.01629 -7.48301 91.2117
lradius 102.127
lwrist -18.0393
lhand 21.0469 43.8849
lfingers 7.12502
lthumb 45.509 67.1811
rfemur -65.7252 1.86632 12.4716
rtibia 63.5314
rfoot -27.5733 -6.88003
rtoes -25.7831
lfemur -64.9686 -3.88773 -17.2081
ltibia 62.748
lfoot -25.4945 3.23615
ltoes -26.3972
3172
root 0.245293 15.6217 -1.4412 29.6827 -3.05421 1.76195
lowerback 28.0663 -0.22824 -2.70323
upperback 4.7174 -1.20241 -1.06107
thorax -10.2167 -0.481362 0.794902
lowerneck -6.88074 -9.11879 -16.8483
upperneck -18.4975 -8.92133 28.8004
head -1.56485 -4.81772 12.1181
rclavicle 0 1.21259e-014
rhumerus 22.6659 17.659 -88.5064
rradius 98.8595
rwrist 32.1137
rhand 24.3141 3.01449
rfingers 7.12502
rthumb 48.5307 -18.9469
lclavicle 0 1.21259e-014
lhumerus 4.62125 -7.04255 90.9219
lradius 102.491
lwrist -17.7407
lhand 21.201 43.6412
lfingers 7.12502
lthumb 45.6522 66.8792
rfemur -64.5444 2.19808 12.6687
rtibia 61.9716
rfoot -27.1463 -6.80481
rtoes -25.4973
lfemur -63.8353 -3.72756 -16.9772
ltibia 61.3037
lfoot -25.0531 2.91456
ltoes -25.7967
3173
root 0.245664 15.7225 -1.41143 29.6788 -2.82068 1.75231
lowerback 27.7052 -0.236446 -2.28008
upperback 4.66361 -1.07874 -1.04585
thorax -10.1065 -0.439952 0.520904
lowerneck -6.86508 -9.20579 -16.7906
upperneck -18.522 -9.02359 29.0025
head -1.53329 -4.88264 12.1719
rclavicle 5.56597e-015 -3.37934e-015
rhumerus 20.2911 17.4402 -89.1507
rradius 97.5467
rwrist 31.5746
rhand 26.0279 2.37926
rfingers 7.12502
rthumb 50.1032 -18.7891
lclavicle 5.56597e-015 -3.37934e-015
lhumerus 3.38741 -6.62534 90.5659
lradius 102.843
lwrist -17.1344
lhand 21.1994 43.0219
lfingers 7.12502
lthumb 45.6507 66.2605
rfemur -63.4856 2.17568 12.7262
rtibia 60.3901
rfoot -26.6553 -6.71635
rtoes -25.0601
lfemur -62.8773 -3.85203 -16.893
ltibia 59.7537
lfoot -24.51 2.60778
ltoes -25.2542
3174
root 0.252132 15.824 -1.3804 29.8077 -2.37726 2.01555
lowerback 27.0379 -0.338662 -1.82861
upperback 4.61046 -1.06297 -1.05097
thorax -9.83555 -0.450296 0.243778
lowerneck -6.84707 -9.31134 -16.7526
upperneck -18.6274 -9.1383 29.1944
head -1.52159 -4.95495 12.2289
rclavicle 1.19271e-015 -7.15625e-015
rhumerus 17.9283 17.0758 -89.6075
rradius 96.4452
rwrist 31.3428
rhand 27.0012 2.20766
rfingers 7.12502
rthumb 50.9918 -18.4783
lclavicle 1.19271e-015 -7.15625e-015
lhumerus 2.35744 -6.29542 90.2006
lradius 103.323
lwrist -16.4804
lhand 21.4193 43.0872
lfingers 7.12502
lthumb 45.8549 66.2419
rfemur -62.5218 1.79023 12.6071
rtibia 58.7877
rfoot -26.1323 -6.6533
rtoes -24.6571
lfemur -62.0507 -4.27926 -16.9941
ltibia 58.0512
lfoot -23.7836 2.29906
ltoes -24.6836
3175
root 0.254054 15.9367 -1.34689 29.8971 -1.9276 2.23032
lowerback 26.4022 -0.365454 -1.49479
upperback 4.56103 -0.980611 -0.967609
thorax -9.57097 -0.423526 0.111629
lowerneck -6.93103 -9.41816 -16.7798
upperneck -18.7036 -9.24599 29.355
head -1.48488 -5.00939 12.2805
rclavicle 3.18055e-015 2.28602e-015
rhumerus 15.5097 16.6094 -89.9303
rradius 95.7179
rwrist 31.5614
rhand 27.6474 2.44095
rfingers 7.12502
rthumb 51.5799 -17.9109
lclavicle 3.18055e-015 2.28602e-015
lhumerus 1.57645 -6.07891 89.857
lradius 103.887
lwrist -15.6821
lhand 21.6349 43.653
lfingers 7.12502
lthumb 46.055 66.7246
rfemur -61.4477 1.48215 12.5228
rtibia 57.108
rfoot -25.6385 -6.52025
rtoes -24.1552
lfemur -61.0954 -4.63562 -17.0611
ltibia 56.2054
lfoot -23.0267 1.8906
ltoes -23.8959
3176
root 0.246285 16.0554 -1.31078 29.6721 -1.74662 2.37748
lowerback 26.1703 -0.213265 -1.49893
upperback 4.49795 -0.773847 -0.881209
thorax -9.52353 -0.32622 0.139583
lowerneck -6.88391 -9.4712 -16.7313
upperneck -18.754 -9.30605 29.4231
head -1.48848 -5.04745 12.2942
rclavicle 1.04362e-015 -4.82053e-015
rhumerus 12.9763 16.1683 -90.2373
rradius 95.4294
rwrist 31.9121
rhand 27.9721 2.67706
rfingers 7.12502
rthumb 51.8749 -17.5026
lclavicle 1.04362e-015 -4.82053e-015
lhumerus 0.948211 -5.91844 89.3787
lradius 104.459
lwrist -14.8443
lhand 21.615 43.7774
lfingers 7.12502
lthumb 46.0364 66.8567
rfemur -60.0176 1.46169 12.4242
rtibia 55.3543
rfoot -25.1189 -6.37659
rtoes -24.0301
lfemur -59.6606 -4.70246 -17.2297
ltibia 54.2708
lfoot -22.3174 1.56625
ltoes -23.3706
3177
root 0.237908 16.1723 -1.27301 29.4956 -1.58956 2.73311
lowerback 25.777 -0.0562016 -1.66269
upperback 4.43568 -0.608049 -0.875409
thorax -9.39075 -0.244607 0.18341
lowerneck -6.79069 -9.52593 -16.5851
upperneck -18.8329 -9.37427 29.4552
head -1.51574 -5.09832 12.279
rclavicle -5.8393e-015 -5.67779e-015
rhumerus 10.4831 15.7036 -90.5078
rradius 95.4343
rwrist 32.1201
rhand 27.695 2.85498
rfingers 7.12502
rthumb 51.6232 -17.4718
lclavicle -5.8393e-015 -5.67779e-015
lhumerus 0.5264 -5.81021 88.7678
lradius 105.029
lwrist -14.1294
lhand 21.525 43.6698
lfingers 7.12502
lthumb 45.953 66.7838
rfemur -58.6023 1.38023 12.0873
rtibia 53.5452
rfoot -24.4942 -6.41569
rtoes -24.1316
lfemur -58.2333 -4.81897 -17.6412
ltibia 52.2926
lfoot -21.4628 1.11968
ltoes -22.0352
3178
root 0.22938 16.2852 -1.23736 29.506 -1.31263 3.05934
lowerback 25.0925 0.0925302 -1.79964
upperback 4.39005 -0.423615 -0.748852
thorax -9.08788 -0.154623 0.340507
lowerneck -7.00143 -9.66804 -16.6174
upperneck -18.7631 -9.553 29.4579
head -1.41538 -5.16513 12.2476
rclavicle 1.19271e-015 -1.19271e-015
rhumerus 8.21129 15.2677 -90.4961
rradius 95.5866
rwrist 31.7514
rhand 27.1665 2.82519
rfingers 7.12502
rthumb 51.1424 -17.7764
lclavicle 1.19271e-015 -1.19271e-015
lhumerus 0.370367 -5.64868 88.3546
lradius 105.653
lwrist -13.6509
lhand 21.6878 43.8331
lfingers 7.12502
lthumb 46.104 66.8842
rfemur -57.3646 1.2565 11.7963
rtibia 51.6895
rfoot -23.805 -6.55924
rtoes -24.3159
lfemur -57.0647 -4.97107 -17.9655
ltibia 50.3305
lfoot -20.4106 0.507802
ltoes -19.9421
3179
root 0.218279 16.3974 -1.20248 29.4002 -1.00394 3.21751
lowerback 24.5213 0.282987 -1.905
upperback 4.39119 -0.16459 -0.486382
thorax -8.79306 -0.0290161 0.608217
lowerneck -7.39236 -9.88501 -16.8307
upperneck -18.6079 -9.82687 29.4397
head -1.22918 -5.25155 12.215
rclavicle 2.38542e-015 1.98785e-016
rhumerus 6.12363 14.8574 -90.2966
rradius 95.8611
rwrist 30.9666
rhand 26.41 2.64354
rfingers 7.12502
rthumb 50.4524 -18.3384
lclavicle 2.38542e-015 1.98785e-016
lhumerus 0.594824 -5.38327 88.1021
lradius 106.201
lwrist -13.3663
lhand 22.3687 43.9853
lfingers 7.12502
lthumb 46.7349 66.7674
rfemur -55.9977 1.21519 11.706
rtibia 49.8206
rfoot -23.1085 -6.66852
rtoes -24.5259
lfemur -55.8202 -5.03366 -18.1235
ltibia 48.4212
lfoot -19.3903 0.219472
ltoes -19.6011
